Format : MPEG-4
Format profile : Sony PSP
Codec ID : MSNV
File size : 1.35 GiB
Duration : 1h 40mn
Overall bit rate : 1 932 Kbps
Encoded date : UTC 2011-06-19 20:49:54
Tagged date : UTC 2011-06-19 20:49:54
Writing library : AVS

Video
ID : 1
Format : AVC
Format/Info : Advanced Video Codec
Format profile : Main@L4.1
Format settings, CABAC : Yes
Format settings, ReFrames : 1 frame
Codec ID : avc1
Codec ID/Info : Advanced Video Coding
Duration : 1h 40mn
Bit rate mode : Variable
Bit rate : 1 799 Kbps
Width : 720 pixels
Height : 480 pixels
Display aspect ratio : 3:2
Frame rate mode : Constant
Frame rate : 29.970 fps
Standard : NTSC
Color space : YUV
Chroma subsampling : 4:2:0
Bit depth : 8 bits
Scan type : Progressive
Bits/(Pixel*Frame) : 0.174
Stream size : 1.26 GiB (93%)
Language : English
Encoded date : UTC 2011-06-19 20:49:54
Tagged date : UTC 2011-06-19 20:49:54

Audio
ID : 2
Format : AAC
Format/Info : Advanced Audio Codec
Format profile : LC
Codec ID : 40
Duration : 1h 40mn
Bit rate mode : Constant
Bit rate : 128 Kbps
Channel(s) : 2 channels
Channel positions : Front: L R
Sampling rate : 48.0 KHz
Compression mode : Lossy
Stream size : 89.8 MiB (6%)
Language : English

Source IMAGINE
